<svg width="32" height="32" viewBox="0 0 32 32" fill="none" xmlns="http://www.w3.org/2000/svg">
<path d="M25.7467 25.2C26.3334 24.28 26.6667 23.1733 26.6667 22C26.6667 18.6667 24.0001 16 20.6667 16C17.3334 16 14.6667 18.6667 14.6667 22C14.6667 25.3333 17.3334 28 20.6667 28C21.8267 28 22.9201 27.6667 23.8401 27.0933L28.0001 31.1867L29.8534 29.3333L25.7467 25.2ZM20.6667 25.3333C19.7827 25.3333 18.9348 24.9821 18.3097 24.357C17.6846 23.7319 17.3334 22.8841 17.3334 22C17.3334 21.1159 17.6846 20.2681 18.3097 19.643C18.9348 19.0179 19.7827 18.6667 20.6667 18.6667C21.5508 18.6667 22.3986 19.0179 23.0238 19.643C23.6489 20.2681 24.0001 21.1159 24.0001 22C24.0001 22.8841 23.6489 23.7319 23.0238 24.357C22.3986 24.9821 21.5508 25.3333 20.6667 25.3333ZM6.66675 26.6667V16H2.66675L16.0001 4L29.3334 16H26.9067C25.7582 14.7976 24.2852 13.9546 22.6667 13.5733L16.0001 7.58667L9.33342 13.5867V24H12.2401C12.4667 24.96 12.8534 25.8533 13.3734 26.6667H6.66675Z" fill="black"/>
</svg>
