<svg width="32" height="32" viewBox="0 0 32 32" fill="none" xmlns="http://www.w3.org/2000/svg">
<path d="M25.7465 25.2C26.3332 24.28 26.6665 23.1733 26.6665 22C26.6665 18.6667 23.9998 16 20.6665 16C17.3332 16 14.6665 18.6667 14.6665 22C14.6665 25.3333 17.3332 28 20.6665 28C21.8265 28 22.9198 27.6667 23.8398 27.0933L27.9998 31.1867L29.8532 29.3333L25.7465 25.2ZM20.6665 25.3333C19.7824 25.3333 18.9346 24.9821 18.3095 24.357C17.6844 23.7319 17.3332 22.8841 17.3332 22C17.3332 21.1159 17.6844 20.2681 18.3095 19.643C18.9346 19.0179 19.7824 18.6667 20.6665 18.6667C21.5506 18.6667 22.3984 19.0179 23.0235 19.643C23.6486 20.2681 23.9998 21.1159 23.9998 22C23.9998 22.8841 23.6486 23.7319 23.0235 24.357C22.3984 24.9821 21.5506 25.3333 20.6665 25.3333ZM6.6665 26.6667V16H2.6665L15.9998 4L29.3332 16H26.9065C25.7579 14.7976 24.285 13.9546 22.6665 13.5733L15.9998 7.58667L9.33317 13.5867V24H12.2398C12.4665 24.96 12.8532 25.8533 13.3732 26.6667H6.6665Z" fill="white"/>
</svg>
