<svg width="32" height="32" viewBox="0 0 32 32" fill="none" xmlns="http://www.w3.org/2000/svg">
<path d="M9.33322 18.9067V4.00008C9.33322 3.64646 9.19274 3.30732 8.94269 3.05727C8.69265 2.80723 8.35351 2.66675 7.99989 2.66675C7.64626 2.66675 7.30713 2.80723 7.05708 3.05727C6.80703 3.30732 6.66655 3.64646 6.66655 4.00008V18.9067C5.89435 19.187 5.22717 19.6983 4.75567 20.371C4.28418 21.0437 4.03125 21.8453 4.03125 22.6667C4.03125 23.4882 4.28418 24.2898 4.75567 24.9625C5.22717 25.6352 5.89435 26.1465 6.66655 26.4267V28.0001C6.66655 28.3537 6.80703 28.6928 7.05708 28.9429C7.30713 29.1929 7.64626 29.3334 7.99989 29.3334C8.35351 29.3334 8.69265 29.1929 8.94269 28.9429C9.19274 28.6928 9.33322 28.3537 9.33322 28.0001V26.4267C10.1054 26.1465 10.7726 25.6352 11.2441 24.9625C11.7156 24.2898 11.9685 23.4882 11.9685 22.6667C11.9685 21.8453 11.7156 21.0437 11.2441 20.371C10.7726 19.6983 10.1054 19.187 9.33322 18.9067ZM7.99989 24.0001C7.73618 24.0001 7.47839 23.9219 7.25913 23.7754C7.03986 23.6289 6.86896 23.4206 6.76805 23.177C6.66713 22.9334 6.64072 22.6653 6.69217 22.4066C6.74362 22.148 6.87061 21.9104 7.05708 21.7239C7.24355 21.5375 7.48112 21.4105 7.73977 21.359C7.99841 21.3076 8.2665 21.334 8.51013 21.4349C8.75377 21.5358 8.962 21.7067 9.10851 21.926C9.25502 22.1453 9.33322 22.403 9.33322 22.6667C9.33322 23.0204 9.19274 23.3595 8.94269 23.6096C8.69265 23.8596 8.35351 24.0001 7.99989 24.0001ZM27.9999 17.3334C27.9976 16.5082 27.74 15.7038 27.2626 15.0307C26.7852 14.3575 26.1113 13.8485 25.3332 13.5734V4.00008C25.3332 3.64646 25.1927 3.30732 24.9427 3.05727C24.6926 2.80723 24.3535 2.66675 23.9999 2.66675C23.6463 2.66675 23.3071 2.80723 23.0571 3.05727C22.807 3.30732 22.6666 3.64646 22.6666 4.00008V13.5734C21.8944 13.8537 21.2272 14.3649 20.7557 15.0376C20.2842 15.7104 20.0312 16.5119 20.0312 17.3334C20.0312 18.1549 20.2842 18.9565 20.7557 19.6292C21.2272 20.3019 21.8944 20.8131 22.6666 21.0934V28.0001C22.6666 28.3537 22.807 28.6928 23.0571 28.9429C23.3071 29.1929 23.6463 29.3334 23.9999 29.3334C24.3535 29.3334 24.6926 29.1929 24.9427 28.9429C25.1927 28.6928 25.3332 28.3537 25.3332 28.0001V21.0934C26.1113 20.8183 26.7852 20.3093 27.2626 19.6362C27.74 18.963 27.9976 18.1587 27.9999 17.3334ZM23.9999 18.6667C23.7362 18.6667 23.4784 18.5885 23.2591 18.442C23.0399 18.2955 22.869 18.0873 22.768 17.8437C22.6671 17.6 22.6407 17.3319 22.6922 17.0733C22.7436 16.8147 22.8706 16.5771 23.0571 16.3906C23.2435 16.2041 23.4811 16.0771 23.7398 16.0257C23.9984 15.9743 24.2665 16.0007 24.5101 16.1016C24.7538 16.2025 24.962 16.3734 25.1085 16.5927C25.255 16.8119 25.3332 17.0697 25.3332 17.3334C25.3332 17.687 25.1927 18.0262 24.9427 18.2762C24.6926 18.5263 24.3535 18.6667 23.9999 18.6667ZM19.9999 6.66675C20.0019 5.93295 19.8021 5.21272 19.4223 4.58489C19.0424 3.95705 18.4971 3.44581 17.8462 3.10711C17.1952 2.7684 16.4636 2.61529 15.7315 2.66453C14.9993 2.71378 14.2948 2.96347 13.6951 3.38629C13.0954 3.80911 12.6235 4.38876 12.3311 5.0618C12.0387 5.73485 11.9371 6.47535 12.0374 7.20227C12.1377 7.92918 12.4361 8.6145 12.8998 9.18322C13.3635 9.75194 13.9747 10.1821 14.6666 10.4267V28.0001C14.6666 28.3537 14.807 28.6928 15.0571 28.9429C15.3071 29.1929 15.6463 29.3334 15.9999 29.3334C16.3535 29.3334 16.6926 29.1929 16.9427 28.9429C17.1927 28.6928 17.3332 28.3537 17.3332 28.0001V10.4267C18.1113 10.1517 18.7852 9.64265 19.2626 8.9695C19.74 8.29635 19.9976 7.49201 19.9999 6.66675ZM15.9999 8.00008C15.7362 8.00008 15.4784 7.92188 15.2591 7.77538C15.0399 7.62887 14.869 7.42063 14.768 7.17699C14.6671 6.93336 14.6407 6.66527 14.6922 6.40663C14.7436 6.14799 14.8706 5.91041 15.0571 5.72394C15.2435 5.53747 15.4811 5.41048 15.7398 5.35904C15.9984 5.30759 16.2665 5.33399 16.5101 5.43491C16.7538 5.53583 16.962 5.70672 17.1085 5.92599C17.255 6.14525 17.3332 6.40304 17.3332 6.66675C17.3332 7.02037 17.1927 7.35951 16.9427 7.60956C16.6926 7.85961 16.3535 8.00008 15.9999 8.00008Z" fill="black"/>
</svg>
