<svg width="28" height="28" viewBox="0 0 28 28" fill="none" xmlns="http://www.w3.org/2000/svg">
<path d="M14 10.5C13.0736 10.5061 12.1869 10.8768 11.5319 11.5319C10.8768 12.1869 10.5061 13.0736 10.5 14C10.5 15.9157 12.0843 17.5 14 17.5C15.9145 17.5 17.5 15.9157 17.5 14C17.5 12.0855 15.9145 10.5 14 10.5Z" fill="#731919"/>
<path d="M14 5.83325C5.09483 5.83325 2.4185 13.5531 2.394 13.6313L2.27033 13.9999L2.39283 14.3686C2.4185 14.4468 5.09483 22.1666 14 22.1666C22.9052 22.1666 25.5815 14.4468 25.606 14.3686L25.7297 13.9999L25.6072 13.6313C25.5815 13.5531 22.9052 5.83325 14 5.83325ZM14 19.8333C7.75717 19.8333 5.33867 15.3463 4.753 13.9999C5.341 12.6489 7.76067 8.16659 14 8.16659C20.2428 8.16659 22.6613 12.6536 23.247 13.9999C22.659 15.3509 20.2393 19.8333 14 19.8333Z" fill="#731919"/>
</svg>
